<?xml version="1.0" standalone="no"?>
<!DOCTYPE svg PUBLIC "-//W3C//DTD SVG 20010904//EN"
 "http://www.w3.org/TR/2001/REC-SVG-20010904/DTD/svg10.dtd">
<svg version="1.0" xmlns="http://www.w3.org/2000/svg"
 width="1558.000000pt" height="354.000000pt" viewBox="0 0 1558.000000 354.000000"
 preserveAspectRatio="xMidYMid meet">
<metadata>
Created by potrace 1.16, written by Peter Selinger 2001-2019
</metadata>
<g transform="translate(0.000000,354.000000) scale(0.100000,-0.100000)"
fill="#000000" stroke="none">
<path d="M718 3510 c-21 -17 -42 -47 -48 -68 -7 -20 -39 -96 -72 -168 l-59
-132 25 -74 c54 -163 95 -222 186 -268 52 -27 153 -50 217 -50 l53 0 -66 -87
c-36 -49 -72 -100 -80 -114 -7 -15 -20 -29 -28 -32 -29 -11 -49 -69 -50 -142
0 -65 3 -78 53 -178 64 -130 72 -189 47 -336 -21 -121 -55 -220 -118 -349 -51
-106 -55 -136 -16 -130 17 2 35 27 75 103 70 134 120 288 135 414 12 103 21
118 45 70 10 -20 9 -27 -9 -46 -22 -23 -19 -53 6 -53 22 0 15 -133 -8 -159
-18 -20 -21 -58 -6 -63 17 -5 -87 -148 -157 -215 -55 -53 -74 -65 -125 -78
-76 -19 -130 -48 -238 -128 -47 -34 -106 -75 -133 -90 -26 -15 -54 -39 -63
-52 -9 -13 -30 -29 -47 -35 -74 -25 -185 -142 -206 -215 -6 -22 -16 -93 -22
-160 -11 -114 -11 -126 9 -191 25 -82 78 -164 163 -257 53 -59 77 -76 173
-122 172 -84 258 -105 430 -105 215 0 398 35 475 90 22 15 35 38 50 90 13 41
31 78 43 88 91 71 113 121 85 193 -10 25 -12 39 -4 39 5 0 87 78 181 173 198
199 459 442 596 553 128 104 172 146 242 233 77 96 118 179 125 250 3 33 22
99 48 161 80 196 95 256 95 393 0 213 -37 412 -99 534 -74 148 -375 420 -566
513 -180 88 -332 119 -650 131 -126 5 -241 10 -255 11 -14 1 -55 -4 -92 -10
-57 -11 -76 -10 -128 4 -52 15 -62 22 -77 53 -16 31 -23 36 -58 39 -32 2 -47
-3 -77 -28z m752 -190 c0 -5 -6 -10 -13 -10 -7 0 -44 -23 -82 -51 -104 -76
-310 -212 -389 -255 l-68 -37 -35 18 c-18 10 -32 22 -31 26 2 4 68 47 148 95
196 117 270 170 270 195 0 38 -49 21 -185 -66 -73 -47 -167 -103 -209 -125
l-75 -41 -12 41 c-7 22 -10 42 -8 44 2 2 62 42 134 90 l130 86 212 0 c135 0
213 -4 213 -10z m188 -10 c17 0 -9 -18 -81 -55 -95 -49 -420 -237 -440 -255
-15 -13 5 -40 29 -40 32 0 97 34 258 132 72 44 170 100 219 125 75 37 88 47
84 64 -4 15 -1 19 11 15 9 -2 49 -12 88 -21 39 -9 87 -26 106 -38 l36 -22
-217 -102 c-119 -56 -237 -111 -263 -122 -50 -21 -57 -31 -35 -53 11 -11 -20
-13 -182 -10 -108 1 -211 5 -230 8 -33 5 -31 6 75 70 104 63 242 156 352 237
42 30 53 43 48 59 -5 20 -2 20 56 14 34 -3 72 -6 86 -6z m469 -179 c43 -32 86
-68 96 -78 17 -19 16 -20 -24 -32 -23 -7 -89 -34 -148 -60 -58 -27 -127 -56
-153 -65 -53 -19 -61 -40 -23 -58 20 -9 36 -7 87 12 35 12 79 31 98 42 19 11
66 31 105 45 38 14 84 33 100 43 29 18 31 18 54 1 23 -17 22 -18 -111 -66
-202 -73 -238 -90 -238 -114 0 -35 48 -26 237 44 156 58 178 64 191 51 14 -13
12 -16 -14 -27 -16 -7 -72 -33 -124 -57 -52 -25 -115 -53 -140 -62 -36 -13
-45 -21 -45 -41 0 -17 6 -25 21 -27 11 -2 98 31 193 72 95 42 177 73 182 70
22 -13 3 -31 -61 -57 -39 -16 -116 -52 -173 -81 -78 -39 -102 -56 -102 -71 0
-34 38 -28 152 23 59 28 135 61 168 75 l60 25 13 -25 c8 -13 11 -30 9 -37 -7
-17 -293 -161 -350 -176 -54 -15 -68 -33 -43 -58 23 -23 71 -8 262 83 87 41
161 72 165 68 4 -5 10 -18 13 -30 7 -20 -6 -28 -146 -97 -84 -40 -170 -81
-190 -89 -41 -17 -52 -52 -22 -64 22 -8 65 8 232 87 112 54 142 65 142 52 0
-12 -48 -38 -168 -91 -195 -87 -212 -97 -212 -122 0 -34 26 -32 127 11 145 61
143 59 -22 -27 -117 -61 -150 -82 -150 -98 0 -12 8 -21 20 -23 11 -1 104 38
207 88 103 49 191 90 197 90 6 0 11 -17 11 -37 0 -29 -3 -34 -12 -25 -7 7 -19
12 -27 12 -33 0 -210 -95 -403 -217 l-38 -23 0 111 c0 232 -98 578 -187 660
-42 40 -150 107 -183 114 -30 7 -42 25 -17 25 7 0 54 19 103 43 49 24 105 49
124 56 156 59 194 89 155 121 -13 11 -47 -1 -210 -73 -106 -48 -200 -87 -207
-87 -7 0 -30 -5 -50 -11 -28 -7 -38 -15 -38 -30 0 -15 -5 -18 -22 -15 -13 3
-41 8 -62 11 -39 6 -37 8 140 89 217 100 344 164 344 173 0 3 -8 15 -17 26
-18 19 -18 20 14 4 17 -9 67 -43 110 -76z m-1429 -103 c31 -69 73 -109 159
-152 53 -27 152 -56 190 -56 21 0 22 -3 13 -21 -10 -18 -13 -19 -23 -6 -7 9
-45 20 -87 27 -125 19 -206 47 -228 78 -28 40 -72 129 -93 189 -17 50 -17 55
-1 83 l17 29 12 -54 c7 -30 25 -82 41 -117z m869 -321 c6 -4 13 -111 17 -254
4 -136 11 -297 17 -358 5 -60 14 -229 19 -375 10 -278 18 -348 41 -376 13 -16
12 -17 -6 -10 -69 26 -258 46 -433 46 l-187 0 107 59 c214 119 327 209 383
306 25 41 29 60 29 119 1 64 -10 102 -105 382 l-106 311 22 62 c35 95 47 104
126 99 37 -3 71 -8 76 -11z m217 -89 c77 -42 140 -104 172 -171 35 -77 34 -81
-45 -110 -118 -44 -137 -45 -177 -6 l-34 33 0 143 c0 98 3 143 11 143 6 0 39
-15 73 -32z m226 -415 l0 -48 -85 4 c-77 3 -90 0 -150 -27 l-65 -31 0 47 0 47
83 0 c68 0 91 5 137 27 77 37 80 36 80 -19z m592 -38 c-3 -20 -50 -53 -243
-170 -132 -80 -241 -145 -243 -145 -2 0 0 19 5 43 4 23 8 45 9 49 0 4 6 5 14
2 17 -6 91 30 201 99 44 27 112 64 150 82 39 18 79 40 90 49 11 8 21 16 21 16
1 0 -1 -11 -4 -25z m-1232 -52 c35 -93 70 -223 70 -258 0 -73 -114 -179 -324
-300 -42 -25 -47 -26 -38 -9 21 39 98 100 195 153 95 53 112 72 86 98 -8 8 1
17 30 34 42 23 52 48 28 67 -10 9 -29 4 -75 -18 -34 -16 -62 -28 -62 -26 0 1
27 22 60 46 33 24 60 45 60 47 0 14 -23 43 -33 43 -7 0 -59 -29 -116 -65 -57
-36 -105 -65 -107 -65 -2 0 -4 17 -4 38 1 36 4 39 93 97 65 43 92 66 92 80 0
32 -52 23 -127 -23 -57 -35 -67 -38 -73 -24 -3 9 -2 18 2 19 5 2 53 30 108 62
55 32 103 59 107 60 4 1 16 -25 28 -56z m610 -82 c23 -17 25 -24 23 -92 -3
-125 -35 -256 -93 -373 -45 -93 -134 -215 -147 -202 -12 12 -22 169 -24 386
l-2 234 73 39 c81 42 120 44 170 8z m556 -80 c-15 -37 -41 -86 -59 -107 -18
-21 -45 -57 -60 -79 -14 -23 -45 -58 -67 -80 -33 -32 -40 -36 -46 -22 -10 27
-45 20 -152 -33 -56 -27 -102 -46 -102 -42 2 29 38 58 139 107 112 55 162 85
253 153 39 29 45 38 37 54 -14 27 -31 23 -106 -26 -91 -58 -248 -146 -262
-146 -6 0 -11 9 -11 19 0 14 24 32 83 64 45 25 147 83 227 130 79 47 146 84
149 82 2 -3 -8 -36 -23 -74z m-67 -348 c-55 -96 -144 -192 -324 -346 -165
-141 -317 -281 -548 -507 -120 -116 -168 -158 -163 -140 3 14 6 34 6 45 0 13
13 27 37 40 37 19 329 306 578 566 66 70 163 158 216 197 94 70 147 120 203
195 45 59 43 35 -5 -50z m-189 13 c0 -13 -161 -136 -177 -136 -11 0 -32 -14
-49 -31 -34 -37 -103 -89 -117 -89 -5 0 -1 12 9 28 10 15 28 47 40 72 19 40
28 48 75 63 30 10 90 35 134 56 92 45 85 42 85 37z m-548 -427 c21 -11 47 -19
60 -19 20 0 20 -2 -12 -35 -28 -29 -36 -32 -43 -20 -14 25 -45 17 -151 -39
-55 -30 -119 -59 -141 -65 -54 -14 -80 -34 -72 -55 16 -40 127 -9 273 77 l79
47 -129 -124 -129 -124 -80 59 c-44 33 -84 59 -89 59 -17 0 -7 16 20 32 15 9
55 38 89 65 34 26 96 67 138 91 45 26 79 52 82 63 5 17 11 19 37 13 17 -3 48
-15 68 -25z m-981 -179 c256 -59 378 -93 427 -121 116 -63 168 -102 188 -140
8 -17 13 -34 10 -37 -8 -7 -143 58 -159 76 -32 39 -228 118 -479 193 -154 46
-179 51 -235 46 -64 -6 -84 5 -40 23 39 15 70 11 288 -40z m84 -128 c165 -55
232 -83 310 -130 55 -32 122 -71 148 -86 35 -20 52 -38 63 -66 9 -21 23 -40
32 -42 10 -2 13 -6 7 -10 -5 -3 -39 12 -75 33 -104 63 -179 82 -313 77 -155
-5 -216 -39 -217 -120 0 -57 18 -85 74 -113 69 -35 195 -35 316 -1 47 13 92
27 101 30 19 8 54 -27 46 -47 -18 -47 -214 -135 -347 -156 -92 -15 -324 -13
-391 3 -101 23 -269 128 -326 203 -25 33 -28 46 -31 130 -5 113 10 208 45 285
26 58 32 63 108 82 11 2 70 3 130 2 107 -3 116 -5 320 -74z"/>
<path d="M1645 3159 c-93 -50 -198 -104 -233 -120 -66 -30 -77 -50 -39 -73 14
-9 47 4 180 72 274 139 307 159 307 187 0 41 -33 31 -215 -66z"/>
<path d="M9068 3493 c-13 -16 -35 -42 -46 -60 -38 -54 -404 -286 -552 -348
-114 -49 -242 -34 -311 36 -25 25 -47 39 -64 39 -33 0 -75 -41 -75 -74 0 -27
49 -75 109 -105 34 -18 39 -25 45 -67 3 -27 3 -82 0 -125 -6 -74 -6 -77 18
-93 15 -10 65 -20 132 -26 162 -16 265 -40 384 -91 26 -12 81 -31 123 -45 96
-30 175 -85 206 -143 20 -39 23 -58 23 -156 0 -84 -5 -126 -19 -168 -16 -47
-17 -58 -6 -67 19 -16 52 -4 60 21 4 11 9 18 12 15 3 -3 -4 -25 -16 -49 -24
-50 -83 -96 -160 -127 -47 -18 -61 -19 -138 -10 -113 12 -171 33 -222 77 -59
50 -43 53 22 4 53 -40 55 -41 138 -41 132 1 184 32 235 144 57 126 17 277 -93
350 -110 73 -271 92 -374 44 -31 -14 -74 -42 -96 -62 -23 -20 -51 -36 -64 -36
-42 0 -71 -31 -114 -124 -55 -116 -68 -178 -64 -297 4 -91 6 -101 51 -190 71
-144 151 -222 254 -250 l36 -11 -50 -23 c-78 -36 -195 -119 -237 -167 -95
-111 -184 -277 -226 -421 -19 -65 -20 -83 -11 -115 6 -20 13 -79 15 -129 6
-118 36 -187 105 -238 26 -19 65 -48 87 -64 162 -120 365 -170 720 -178 l210
-5 80 40 c193 95 285 202 285 331 0 95 -59 130 -220 131 -123 0 -183 -21 -238
-84 -34 -39 -35 -65 -4 -113 21 -34 107 -94 153 -107 l41 -12 -68 -35 c-65
-32 -72 -34 -164 -32 -270 7 -488 42 -597 95 -111 56 -158 85 -199 126 -103
102 -93 250 30 430 91 133 110 142 265 127 72 -8 79 -11 200 -90 133 -87 219
-167 245 -225 8 -19 22 -46 30 -60 8 -14 17 -33 20 -43 10 -32 59 -21 118 26
153 123 363 258 472 303 116 49 126 57 126 104 0 22 3 40 8 40 20 0 114 -97
143 -147 18 -31 44 -70 59 -87 14 -17 34 -52 44 -78 9 -26 28 -63 42 -83 13
-20 24 -42 24 -49 0 -7 5 -27 11 -45 9 -25 16 -31 41 -31 26 0 49 18 142 113
62 61 134 136 160 165 26 29 90 87 142 128 85 68 94 78 94 108 0 32 3 35 83
71 45 21 104 44 131 51 81 21 116 71 82 117 -15 19 -57 22 -135 7 -113 -21
-185 18 -214 117 -20 69 -6 964 17 1137 13 95 14 129 5 176 -8 43 -8 75 0 126
16 100 30 246 24 261 -3 7 -30 30 -60 50 -30 20 -61 46 -69 58 -26 40 -307
163 -412 180 -40 6 -44 5 -78 -32 -142 -150 -248 -245 -344 -305 -85 -54 -84
-54 -104 10 -41 134 -177 304 -311 387 -83 52 -111 56 -147 18z m135 -159 l46
-36 -27 -22 c-15 -13 -103 -78 -197 -146 -93 -68 -216 -158 -272 -201 l-102
-78 -40 16 -40 16 87 65 c47 36 156 104 242 150 232 127 295 167 298 191 6 36
-21 33 -124 -14 -59 -27 -87 -36 -69 -23 17 12 53 44 80 70 28 26 55 48 61 48
6 0 32 -16 57 -36z m849 -147 c-163 -114 -343 -229 -348 -225 -2 3 37 38 88
79 51 41 131 112 178 159 l85 85 42 -19 41 -19 -86 -60z m-928 -138 c-345
-268 -308 -244 -356 -229 -37 11 -40 13 -22 23 38 20 423 299 485 351 63 53
64 53 80 33 16 -20 11 -25 -187 -178z m1130 128 l28 -23 -198 -130 c-292 -191
-257 -174 -308 -150 l-43 20 161 101 c89 55 195 124 236 152 41 29 80 52 85
52 6 1 23 -9 39 -22z m-866 -75 c9 -27 6 -31 -52 -78 -150 -120 -284 -217
-319 -231 -21 -9 -43 -23 -50 -33 -12 -17 -14 -17 -45 -1 l-32 17 144 112
c217 169 318 242 338 242 3 0 10 -13 16 -28z m1033 -38 c41 -30 48 -39 43 -62
-8 -47 -34 -217 -34 -224 0 -4 -75 -58 -166 -118 -91 -61 -199 -136 -241 -166
-42 -30 -77 -53 -78 -52 -1 2 -5 44 -8 94 l-5 90 44 13 c59 18 188 95 299 181
140 108 141 109 128 128 -19 32 -43 24 -135 -46 -165 -123 -337 -220 -346
-194 -2 6 -14 27 -27 47 l-24 35 97 68 c199 141 362 242 391 242 7 0 35 -16
62 -36z m-1004 -187 c-119 -103 -286 -227 -306 -227 -14 0 -91 50 -91 59 1 3
38 28 83 54 45 26 136 90 202 142 l120 94 12 -47 c13 -47 12 -47 -20 -75z
m-950 -81 c23 -8 59 -24 80 -35 21 -11 83 -33 138 -50 124 -37 243 -95 313
-150 60 -48 65 -66 8 -27 -20 13 -60 32 -89 42 -29 9 -110 41 -182 71 -119 49
-144 55 -310 79 -99 15 -181 28 -183 29 -2 2 0 25 4 53 l6 50 87 -23 c47 -13
105 -30 128 -39z m1003 -15 c0 -19 -268 -226 -292 -226 -7 0 -14 7 -15 15 -2
17 286 242 299 234 4 -3 8 -13 8 -23z m274 -45 c36 -33 66 -101 66 -150 0 -17
-4 -14 -21 14 -11 19 -31 43 -42 52 -26 20 -107 24 -125 6 -9 -9 -12 -6 -12
14 0 14 -3 39 -6 56 l-6 31 53 4 c30 2 55 4 55 5 1 1 18 -13 38 -32z m-256
-90 c-1 -1 -58 -46 -126 -100 -98 -78 -123 -102 -120 -119 6 -45 42 -32 153
53 98 76 105 80 105 56 0 -20 -23 -44 -117 -121 l-118 -96 -28 83 -28 83 23
15 c12 8 74 52 138 97 82 58 116 77 118 66 2 -8 2 -16 0 -17z m918 -23 c-3
-21 -6 -46 -6 -57 0 -14 -3 -16 -13 -8 -23 20 -119 -35 -337 -193 -113 -82
-110 -81 -110 -51 0 18 17 38 66 77 75 59 384 268 398 269 5 0 6 -17 2 -37z
m-685 -54 c10 -13 22 -40 26 -59 13 -59 5 -300 -22 -650 -14 -184 -28 -386
-32 -448 l-6 -112 -51 6 c-85 12 -192 39 -369 93 -185 56 -388 101 -463 101
-47 1 -48 1 -24 14 14 7 65 16 113 20 190 14 343 99 497 278 54 62 76 99 118
196 95 223 129 370 118 512 l-7 87 42 -7 c26 -5 49 -17 60 -31z m651 -202
c-11 -25 -32 -53 -46 -63 -15 -11 -50 -37 -78 -59 -141 -111 -177 -138 -224
-165 -80 -46 -85 -43 -82 43 l3 72 127 95 c69 52 168 121 220 153 l93 58 3
-45 c2 -29 -4 -62 -16 -89z m-1547 -109 l26 -23 -100 -70 c-99 -69 -115 -91
-87 -114 19 -16 63 3 144 63 62 46 62 46 62 20 0 -42 -29 -91 -63 -107 -56
-26 -100 -25 -136 5 -17 15 -49 37 -71 49 -22 13 -40 25 -40 29 0 3 13 13 28
22 16 9 66 46 113 82 46 36 87 66 91 66 4 0 19 -10 33 -22z m1545 -78 c0 -48
-3 -58 -15 -54 -9 4 -78 -47 -190 -141 -137 -115 -175 -152 -175 -171 0 -58
82 -12 258 144 136 121 122 120 122 4 0 -90 -2 -100 -17 -96 -12 3 -79 -45
-202 -147 -140 -116 -185 -149 -192 -138 -5 8 -9 98 -9 200 l0 187 28 6 c34 8
191 114 297 200 44 35 83 65 88 65 4 1 7 -26 7 -59z m-1979 -77 c-12 -23 -8
-81 8 -142 18 -62 106 -152 190 -194 63 -31 71 -32 208 -35 86 -2 156 0 174 7
24 8 34 8 45 -3 11 -12 8 -18 -21 -40 -29 -22 -37 -25 -53 -15 -16 10 -30 8
-73 -9 -48 -20 -61 -21 -119 -11 -85 13 -200 52 -253 85 -63 39 -96 73 -125
129 -22 42 -26 63 -27 133 0 76 2 85 24 103 28 23 37 19 22 -8z m1440 -412 c8
-277 9 -395 1 -403 -7 -7 -19 -6 -41 3 -27 12 -31 19 -31 54 -1 45 53 745 57
741 1 -1 8 -179 14 -395z m-1532 61 c62 -87 260 -201 355 -203 26 0 28 -2 11
-9 -34 -15 -130 -11 -186 7 -103 33 -229 189 -244 304 l-6 44 24 -56 c13 -31
34 -70 46 -87z m2106 -322 c7 -54 6 -56 -20 -68 -15 -7 -87 -55 -161 -107 -73
-52 -141 -95 -150 -95 -10 0 -25 -7 -34 -15 -15 -14 -18 -14 -30 0 -8 9 -9 19
-4 24 5 4 74 57 154 118 80 61 156 123 169 137 24 25 24 26 6 46 -10 11 -22
20 -28 20 -5 0 -87 -62 -181 -138 -94 -76 -176 -142 -183 -146 -7 -4 -4 11 7
36 11 24 20 55 20 71 0 21 5 27 23 27 23 0 193 116 276 188 32 27 43 43 38 55
-11 30 -57 20 -116 -25 -107 -81 -203 -148 -212 -148 -5 0 -9 17 -9 38 0 31 6
41 33 59 17 12 106 83 197 157 l165 135 16 -157 c9 -86 20 -182 24 -212z
m-1485 -66 l32 -7 -32 -13 c-17 -8 -70 -41 -116 -75 -82 -59 -87 -61 -130 -54
-25 3 -44 8 -42 9 1 2 48 35 103 75 101 72 118 78 185 65z m129 -32 l64 -18
-74 -44 c-41 -23 -95 -58 -122 -76 -26 -19 -49 -34 -52 -34 -2 0 -18 8 -35 19
l-31 18 56 42 c31 23 65 44 77 46 24 5 38 22 38 48 0 21 0 21 79 -1z m1414
-118 c-51 -41 -224 -153 -266 -173 l-48 -23 -29 27 -29 28 108 74 c59 40 134
95 167 121 l59 48 28 -44 c27 -42 27 -45 10 -58z m-1147 36 l28 -11 -65 -43
c-35 -23 -108 -68 -161 -100 -89 -52 -100 -56 -118 -43 -18 13 -13 18 87 81
61 39 112 65 121 61 19 -7 59 19 67 45 7 23 6 23 41 10z m193 -46 l72 -16 -31
-19 c-17 -11 -68 -37 -113 -59 -69 -34 -157 -94 -283 -195 -25 -20 -26 -20
-40 -1 -8 11 -14 22 -14 25 0 4 73 47 162 96 99 55 164 97 166 108 6 30 -31
19 -177 -53 -77 -38 -141 -68 -141 -66 0 6 114 74 179 107 35 18 75 45 90 60
31 33 37 34 130 13z m355 -108 c33 -25 96 -77 140 -118 l79 -73 -24 -91 -23
-92 -22 55 c-12 30 -33 71 -47 91 -13 21 -41 62 -60 93 -20 30 -66 83 -101
117 -64 62 -64 62 -34 62 20 0 51 -15 92 -44z m-1285 -8 c15 -9 25 -9 46 0 41
19 108 -2 199 -62 144 -95 201 -170 190 -251 -10 -70 -14 -73 -39 -24 -39 75
-118 153 -226 221 -136 86 -179 108 -209 108 -14 0 -32 5 -40 10 -11 7 -5 10
23 10 20 0 46 -5 56 -12z"/>
<path d="M3505 2352 c-50 -32 -119 -83 -155 -113 -36 -30 -105 -83 -155 -117
-117 -80 -186 -141 -224 -199 l-31 -47 4 -453 5 -454 35 -27 c19 -15 79 -67
133 -116 54 -49 128 -112 166 -140 48 -36 67 -57 67 -73 0 -20 5 -23 38 -23
29 0 44 8 70 34 40 42 189 148 275 196 34 20 67 47 74 61 6 13 16 60 22 104 9
71 8 82 -7 97 -14 15 -24 16 -52 8 -84 -24 -167 -2 -227 61 -38 40 -83 135
-90 190 -9 62 35 110 226 247 91 64 187 137 213 162 l49 45 -27 68 c-21 53
-24 70 -14 82 13 16 6 35 -14 35 -8 0 -20 26 -30 66 -28 110 -88 214 -179 312
-28 28 -57 52 -66 52 -9 0 -57 -26 -106 -58z m48 -464 c19 -31 40 -84 47 -117
l12 -60 -78 -85 c-43 -47 -78 -85 -79 -83 0 1 1 105 3 231 l4 229 28 -29 c16
-16 44 -55 63 -86z m-184 -240 c0 -40 -3 -67 -6 -61 -7 19 -50 -7 -171 -104
-59 -47 -96 -74 -82 -59 14 16 67 62 118 103 86 70 104 94 83 107 -11 7 -93
-45 -158 -100 -28 -24 -54 -44 -57 -44 -16 0 -3 39 22 62 31 30 232 168 244
168 4 0 8 -33 7 -72z m-251 -696 c129 -117 220 -192 253 -206 22 -9 25 -15 18
-34 -5 -12 -13 -22 -18 -22 -35 0 -361 298 -361 331 0 10 3 19 6 19 3 0 49
-40 102 -88z m655 -17 c-4 -39 -8 -42 -79 -80 -41 -21 -116 -70 -166 -107 -50
-38 -92 -67 -94 -65 -8 7 123 127 230 212 60 47 109 85 111 83 1 -2 0 -21 -2
-43z"/>
<path d="M11554 2387 c-71 -41 -168 -110 -214 -152 -25 -23 -87 -70 -138 -104
-115 -77 -224 -179 -251 -235 -25 -50 -26 -125 -11 -453 7 -139 7 -255 1 -340
-7 -86 -7 -129 0 -132 6 -1 65 -52 132 -113 67 -60 156 -135 198 -166 54 -40
76 -63 75 -77 -1 -16 6 -21 31 -23 27 -3 43 6 99 54 68 57 236 172 286 194 30
14 44 41 58 119 22 118 6 149 -66 129 -60 -16 -129 -5 -177 28 -74 52 -153
216 -129 269 21 45 78 98 196 182 173 122 286 212 286 227 0 7 -11 41 -25 76
-17 43 -22 67 -15 74 16 16 12 33 -9 39 -14 3 -22 20 -30 58 -6 30 -22 77 -36
106 -47 103 -171 263 -203 263 -10 0 -35 -11 -58 -23z m7 -522 c16 -33 32 -83
35 -110 l6 -50 -79 -86 c-43 -48 -79 -86 -79 -85 -1 0 2 42 7 91 4 50 8 153 8
229 l1 140 36 -35 c19 -18 48 -61 65 -94z m-196 -210 c-3 -36 -10 -63 -14 -60
-11 6 -81 -41 -175 -119 -43 -37 -81 -66 -85 -66 -7 1 25 29 136 119 43 35 82
67 86 71 4 4 5 14 1 23 -9 24 -45 6 -147 -74 -84 -66 -88 -69 -85 -43 2 21 21
41 78 84 83 62 203 140 209 134 2 -2 0 -33 -4 -69z m-132 -808 c56 -48 114
-93 130 -100 16 -7 25 -17 22 -25 -3 -8 -5 -20 -5 -28 0 -11 -4 -12 -19 -4
-35 18 -143 109 -253 211 -83 77 -105 103 -101 119 5 18 12 14 64 -33 33 -28
105 -91 162 -140z m532 86 c-6 -35 -12 -41 -85 -82 -43 -23 -120 -74 -170
-112 -103 -79 -104 -61 -2 30 88 79 255 211 260 206 2 -2 1 -21 -3 -42z"/>
<path d="M13178 2361 c-132 -85 -240 -146 -321 -181 -111 -48 -167 -85 -168
-112 -1 -20 -2 -21 -6 -3 -2 11 -15 43 -28 70 -12 28 -29 69 -36 93 -14 48
-59 92 -92 92 -12 0 -34 -8 -48 -18 -15 -9 -51 -33 -80 -53 -30 -20 -109 -69
-176 -108 -67 -39 -140 -88 -162 -109 l-40 -38 14 -39 c8 -22 14 -47 15 -56 0
-30 24 -41 55 -25 38 20 61 6 75 -42 15 -56 13 -381 -4 -476 -8 -45 -17 -128
-19 -186 l-4 -105 79 -75 c44 -41 95 -97 113 -125 35 -52 151 -157 208 -187
68 -36 86 -28 175 80 44 53 107 126 140 162 l60 65 27 -25 c35 -32 146 -160
204 -234 25 -31 57 -64 72 -73 17 -10 25 -22 22 -31 -7 -17 14 -32 44 -32 31
0 158 68 408 217 248 149 267 163 288 205 57 118 60 133 68 358 4 118 16 301
28 405 11 105 21 244 21 311 0 131 -1 134 -61 165 -15 8 -64 47 -110 86 -46
40 -90 73 -97 73 -7 0 -54 -36 -105 -81 -51 -45 -123 -96 -162 -116 -38 -20
-93 -50 -121 -69 l-52 -32 -16 91 c-24 130 -33 160 -56 185 -31 34 -67 27
-152 -27z m131 -246 c6 -49 13 -154 16 -232 6 -120 5 -143 -7 -143 -22 0 -97
-53 -186 -130 -58 -50 -86 -68 -106 -67 -14 1 -26 5 -26 8 0 8 169 150 218
183 53 36 103 98 93 114 -10 16 -73 -25 -178 -117 -129 -112 -106 -65 32 66
69 65 125 124 125 131 0 33 -49 3 -157 -97 -84 -78 -119 -105 -122 -93 -2 9
12 28 35 46 95 76 234 211 234 228 0 38 -36 15 -182 -120 -67 -61 -73 -65 -76
-43 -3 18 9 34 50 69 29 26 89 81 133 124 64 62 76 78 63 83 -20 8 -32 0 -156
-107 -85 -73 -90 -76 -94 -53 -4 21 14 40 131 139 75 63 139 111 143 108 4 -4
11 -47 17 -97z m566 -255 c-119 -117 -143 -137 -127 -105 26 51 96 133 181
212 54 50 64 64 53 74 -26 28 -116 -48 -220 -186 -32 -43 -16 0 22 55 61 91
147 190 166 190 11 0 30 14 42 31 l23 31 3 -78 3 -78 -146 -146z m-215 198 c0
-29 -5 -136 -11 -238 -6 -102 -11 -264 -12 -360 -2 -170 -17 -268 -38 -254
-22 13 -2 582 26 758 10 64 11 95 3 109 -7 15 -7 22 3 28 25 16 29 10 29 -43z
m-1080 11 c13 -23 21 -12 -139 -193 -47 -52 -86 -94 -88 -92 -2 2 -7 26 -12
54 l-8 51 51 49 c74 71 169 152 178 152 4 0 12 -9 18 -21z m292 -6 c9 -10 25
-36 36 -58 20 -40 20 -51 14 -475 -4 -239 -11 -440 -15 -447 -4 -7 -14 -10
-22 -7 -12 5 -12 10 -3 27 14 26 5 431 -15 664 -13 143 -17 167 -41 207 -14
25 -34 49 -43 55 -14 8 -12 12 18 30 41 25 52 26 71 4z m687 -4 c36 -13 35 -5
16 -116 -17 -105 -35 -371 -35 -538 l0 -119 -45 49 c-87 96 -84 84 -82 418 l2
295 55 9 c30 6 55 11 56 12 1 0 15 -4 33 -10z m-812 -72 c44 -48 54 -84 74
-267 12 -119 25 -600 15 -600 -22 0 -79 59 -100 103 -54 112 -58 144 -50 490
4 174 10 317 14 317 4 0 25 -19 47 -43z m-553 -18 c51 -24 59 -69 64 -354 4
-214 1 -281 -13 -376 -10 -64 -15 -127 -12 -141 8 -31 211 -236 276 -278 37
-24 47 -37 44 -51 -3 -10 -10 -19 -16 -19 -5 0 -40 32 -76 72 -36 39 -108 114
-158 166 l-93 94 0 82 c0 44 7 133 16 196 17 126 20 420 4 485 -11 51 -50 85
-96 85 -40 0 -46 21 -11 38 29 14 41 14 71 1z m382 -208 c-15 -21 -71 -85
-126 -144 l-100 -107 0 44 c0 40 6 50 72 122 40 44 95 102 123 129 l50 50 3
-28 c2 -19 -6 -42 -22 -66z m754 -65 c0 -8 -33 -40 -72 -72 -112 -90 -248
-225 -248 -245 0 -29 23 -23 61 17 18 20 66 63 104 97 51 44 38 28 -50 -61
-66 -67 -121 -122 -122 -122 -2 0 -3 33 -3 73 l0 73 63 41 c34 23 107 80 162
127 55 47 101 86 102 86 2 0 3 -6 3 -14z m627 -207 c-7 -5 -65 -65 -128 -135
-92 -103 -115 -123 -117 -106 -6 38 49 120 152 229 l101 107 3 -44 c2 -29 -1
-46 -11 -51z m-1434 -52 c-95 -100 -183 -211 -183 -231 0 -35 29 -12 135 107
103 114 110 120 113 94 3 -23 -11 -43 -83 -119 -48 -50 -104 -113 -125 -139
-52 -66 -63 -52 -50 62 5 46 10 88 10 92 0 4 55 67 123 139 121 131 122 132
125 99 3 -28 -5 -41 -65 -104z m141 -400 c-27 -29 -64 -69 -81 -91 -22 -27
-36 -37 -48 -32 -14 5 -13 11 14 44 16 21 51 58 76 81 45 42 54 71 20 71 -16
0 -145 -126 -145 -141 0 -5 -7 -9 -15 -9 -8 0 -15 3 -15 8 0 4 41 51 91 105
l91 97 31 -41 32 -41 -51 -51z m132 -11 l28 -23 -54 -62 c-56 -63 -78 -81 -41
-35 22 27 28 64 12 64 -5 0 -32 -25 -60 -56 -49 -56 -81 -67 -81 -29 0 19 140
165 157 165 7 0 24 -11 39 -24z m1164 15 c0 -13 -98 -87 -196 -149 -96 -60
-446 -253 -451 -248 -2 1 2 17 8 34 9 27 16 32 43 32 20 0 47 11 72 30 21 16
43 30 47 30 4 0 36 19 70 42 74 50 389 238 400 238 4 0 7 -4 7 -9z m-718 -275
c2 -13 10 -21 22 -21 23 0 29 -14 18 -44 -7 -21 -9 -20 -46 16 -48 48 -231
265 -245 292 -6 11 -11 23 -11 28 0 16 259 -252 262 -271z"/>
<path d="M6330 2341 c-69 -31 -164 -77 -213 -100 l-87 -43 -43 39 c-83 76
-196 142 -245 143 -29 0 -340 -308 -366 -363 -16 -35 -16 -40 -2 -63 9 -13 23
-24 31 -24 12 0 15 -15 15 -67 0 -91 4 -96 65 -78 82 25 80 33 83 -311 l3
-294 -85 -81 c-54 -50 -94 -99 -110 -131 -26 -53 -34 -102 -17 -113 5 -3 17
-30 26 -60 8 -30 20 -55 26 -55 5 0 40 18 76 40 37 22 79 40 93 40 l27 0 6
-177 c4 -108 2 -182 -3 -187 -13 -13 -13 -46 0 -46 6 0 10 -17 9 -37 -2 -66
12 -187 28 -228 19 -54 55 -105 72 -105 7 0 77 62 155 138 77 75 175 160 216
187 l75 50 -1 70 c-1 47 -10 93 -27 138 -13 37 -22 67 -18 67 3 0 33 -21 65
-45 33 -25 63 -45 68 -45 5 0 62 53 126 118 64 65 168 167 231 226 l113 108
-7 57 c-18 144 0 440 50 831 8 63 15 124 15 135 0 12 -38 62 -92 122 -51 56
-112 124 -136 152 -33 38 -50 51 -70 50 -15 0 -83 -26 -152 -58z m273 -217
l68 -72 -7 -51 c-5 -40 -11 -51 -24 -51 -10 0 -34 -21 -54 -47 -19 -27 -82
-95 -140 -153 -104 -103 -106 -104 -106 -72 0 17 4 32 8 32 5 0 39 35 75 78
36 42 95 107 131 144 64 65 77 90 56 103 -16 10 -110 -75 -194 -176 -74 -88
-76 -89 -76 -57 0 29 11 42 85 107 101 88 175 165 175 183 0 7 -4 19 -9 27
-13 20 -58 0 -63 -28 -2 -12 -43 -56 -93 -100 l-90 -79 -7 51 -6 51 51 45 c29
25 72 66 97 92 25 27 47 47 50 46 3 -1 36 -34 73 -73z m-388 -119 c18 -36 20
-60 20 -220 0 -99 -2 -211 -5 -250 -2 -38 -1 -140 4 -225 6 -139 6 -153 -8
-136 -23 28 -27 93 -29 436 -3 338 -7 364 -54 376 -27 7 -31 38 -5 53 31 19
56 8 77 -34z m-606 -88 c18 -54 31 -245 23 -337 l-7 -85 -6 140 c-3 90 -11
151 -20 170 -13 28 -19 30 -72 33 l-57 3 0 54 0 55 64 0 c64 0 64 0 75 -33z
m541 -355 c3 -196 5 -358 4 -360 -1 -2 -12 0 -25 3 l-24 6 2 202 c4 346 14
530 27 517 8 -7 13 -121 16 -368z m495 251 c-9 -105 -14 -123 -34 -123 -10 0
-31 -20 -47 -45 -16 -24 -72 -92 -124 -150 -94 -105 -95 -106 -98 -75 -4 40
19 71 166 222 63 64 111 121 107 127 -15 26 -48 4 -158 -107 -78 -79 -117
-113 -117 -100 0 10 19 35 43 55 91 81 190 180 225 225 20 27 38 48 40 48 2 0
1 -35 -3 -77z m-776 -396 c-77 -81 -146 -144 -151 -140 -6 3 8 21 31 41 60 49
241 263 241 284 0 38 -32 14 -149 -109 -91 -96 -121 -123 -121 -107 0 15 47
68 143 162 l142 141 3 -62 3 -62 -142 -148z m141 -52 l0 -124 -52 6 c-29 3
-55 7 -57 9 -2 2 17 22 42 45 45 39 59 71 37 84 -5 3 -42 -22 -82 -56 -118
-98 -118 -89 -2 40 59 66 110 121 111 121 2 0 3 -56 3 -125z m654 -251 c12
-31 5 -42 -81 -125 -49 -46 -144 -139 -212 -207 l-123 -123 -52 39 c-28 21
-68 49 -88 61 -21 13 -38 24 -38 26 0 1 39 -8 86 -22 l87 -24 197 195 c108
108 202 196 207 196 6 0 14 -7 17 -16z m-554 -642 c0 -23 -11 -36 -62 -72 -35
-24 -122 -102 -194 -172 -128 -126 -131 -127 -142 -103 -8 17 -8 26 -1 31 6 4
18 23 28 43 38 85 178 218 285 271 74 37 86 38 86 2z"/>
<path d="M14907 2277 c-90 -46 -195 -104 -233 -129 -38 -24 -90 -57 -117 -72
-26 -15 -76 -55 -111 -89 -55 -53 -65 -69 -75 -115 -15 -72 -14 -129 5 -220
29 -144 65 -193 166 -229 42 -14 83 -18 198 -18 80 0 166 4 191 8 56 11 56 11
66 -137 6 -95 5 -99 -13 -92 -81 31 -195 48 -301 44 -108 -4 -117 -6 -190 -44
-85 -43 -151 -113 -199 -210 -32 -66 -51 -166 -37 -196 6 -13 17 -39 25 -58
35 -80 93 -121 126 -88 17 17 15 53 -4 69 -8 7 -22 25 -30 40 -13 27 -13 29
10 44 14 9 49 19 79 22 46 5 64 1 113 -21 83 -38 118 -68 160 -136 20 -33 40
-60 44 -60 4 0 31 17 61 38 30 21 110 65 179 96 69 32 222 105 342 163 l216
105 -4 295 c-2 162 -7 299 -10 304 -3 5 -32 23 -65 40 -50 25 -59 33 -54 49 8
25 -20 38 -46 22 -26 -16 -29 -15 -29 9 0 17 -5 20 -25 17 -16 -3 -25 -1 -25
7 0 34 -40 24 -167 -41 -117 -61 -134 -67 -157 -56 -14 6 -32 22 -42 36 -19
29 -64 139 -60 144 2 2 20 -8 40 -22 37 -25 113 -46 167 -46 38 0 132 27 179
50 19 10 60 45 91 77 42 44 62 76 84 133 15 41 38 96 51 121 l23 46 -35 48
c-42 60 -49 65 -96 65 -27 0 -38 -5 -43 -19 -8 -25 3 -49 26 -56 48 -16 0 -75
-60 -75 -53 0 -80 12 -118 50 -32 33 -42 53 -62 128 -10 37 -15 42 -41 42 -16
0 -99 -36 -193 -83z m122 -398 c21 -6 74 -10 117 -8 72 4 87 8 153 47 41 23
76 40 79 37 10 -9 -85 -90 -139 -120 -42 -22 -69 -29 -129 -33 -67 -3 -81 -1
-130 25 -54 28 -88 72 -90 116 0 14 9 11 51 -18 28 -19 68 -40 88 -46z m460
-579 c0 -14 -2 -20 -7 -13 -5 8 -17 7 -47 -4 -22 -8 -48 -17 -58 -20 -10 -3
-66 -38 -125 -77 l-107 -71 3 35 c4 34 7 36 93 74 67 28 89 43 87 55 -2 10
-11 15 -23 13 -34 -6 -11 7 81 48 l89 39 6 -27 c4 -15 7 -38 8 -52z m-516
-214 c1 -6 -63 -54 -141 -108 -104 -71 -148 -96 -159 -89 -12 6 0 21 56 67
110 90 193 144 219 141 12 -1 24 -6 25 -11z m556 -60 c-11 -10 -234 -118 -388
-187 -96 -44 -208 -97 -248 -118 -50 -26 -73 -34 -73 -25 0 8 6 14 13 14 7 0
46 23 87 51 41 28 129 78 195 111 150 76 409 180 414 167 1 -6 1 -12 0 -13z"/>
<path d="M4405 2234 c-124 -75 -295 -196 -326 -231 -59 -68 -78 -146 -36 -156
12 -4 31 -13 41 -20 21 -16 23 -41 42 -687 4 -156 11 -256 19 -275 19 -45 91
-122 122 -129 16 -4 65 -25 110 -47 45 -21 90 -39 100 -39 11 1 72 67 156 170
115 141 137 173 135 198 -1 17 4 37 11 46 13 15 7 56 -8 56 -5 0 -27 17 -48
39 -37 35 -41 45 -52 117 -12 87 -31 364 -31 459 l0 60 19 -31 c21 -35 54 -60
120 -94 96 -48 270 -5 329 81 15 22 46 64 69 95 96 127 124 239 83 327 -24 52
-52 77 -85 77 -46 0 -58 -42 -24 -79 11 -12 18 -28 15 -36 -5 -15 -66 -35
-107 -35 -29 0 -86 39 -138 94 -19 20 -42 36 -51 36 -22 0 -94 -48 -155 -103
l-50 -45 -91 94 c-49 52 -94 94 -100 94 -5 0 -36 -16 -69 -36z m177 -251 c-11
-22 -23 -33 -37 -33 -12 0 -74 -41 -141 -95 -65 -52 -122 -95 -126 -95 -5 0
-8 11 -8 23 0 18 28 45 121 118 158 122 149 114 149 128 0 34 -38 17 -149 -68
-66 -50 -122 -91 -126 -91 -10 0 62 60 168 140 l102 77 31 -36 c31 -35 31 -36
16 -68z m-23 -385 c1 -97 -1 -108 -16 -108 -10 0 -73 -52 -140 -116 -103 -97
-123 -112 -123 -92 0 17 38 62 135 158 119 119 157 170 126 170 -15 0 -68 -46
-168 -143 l-92 -90 -6 37 c-9 45 -8 46 140 174 110 95 126 114 105 127 -11 7
-81 -42 -187 -132 -36 -31 -63 -47 -63 -39 0 8 61 67 135 131 86 74 135 124
135 136 0 10 -6 19 -13 19 -7 0 -63 -42 -125 -94 -139 -117 -132 -113 -132
-78 0 27 17 43 138 140 l137 110 6 -101 c4 -56 7 -150 8 -209z m-395 283 c13
-11 28 -418 30 -820 l1 -144 42 -47 c23 -26 74 -66 113 -90 39 -23 70 -44 67
-46 -12 -12 -155 59 -191 96 l-40 39 -7 168 c-5 93 -13 301 -18 464 -6 164
-16 311 -22 329 -7 17 -26 41 -43 52 l-31 20 43 -5 c23 -3 49 -10 56 -16z
m540 -42 c39 -58 109 -89 201 -89 39 0 86 4 104 10 48 13 49 6 5 -24 -55 -37
-133 -52 -186 -36 -77 23 -135 81 -152 153 -9 37 -3 34 28 -14z m-134 -435 c0
-100 34 -260 67 -310 12 -20 10 -23 -24 -49 -21 -16 -76 -66 -123 -111 -78
-76 -87 -82 -108 -70 -21 11 -17 16 103 130 117 110 146 151 107 151 -6 0 -70
-53 -141 -118 -72 -64 -132 -113 -135 -108 -3 5 55 66 129 136 74 70 135 133
135 140 0 33 -25 20 -111 -57 -156 -142 -189 -170 -189 -160 0 8 44 52 222
223 40 38 49 69 22 69 -9 0 -63 -43 -120 -95 -57 -52 -109 -95 -116 -95 -7 0
47 58 120 129 87 85 132 136 132 150 0 12 -6 21 -12 21 -7 0 -66 -53 -130
-117 -97 -97 -118 -114 -118 -94 0 17 38 60 138 156 75 73 140 131 145 128 4
-2 7 -24 7 -49z"/>
</g>
</svg>
