<?xml version="1.0" encoding="UTF-8" standalone="no"?>
<svg
   xmlns:dc="http://purl.org/dc/elements/1.1/"
   xmlns:cc="http://creativecommons.org/ns#"
   xmlns:rdf="http://www.w3.org/1999/02/22-rdf-syntax-ns#"
   xmlns:svg="http://www.w3.org/2000/svg"
   xmlns="http://www.w3.org/2000/svg"
   xmlns:sodipodi="http://sodipodi.sourceforge.net/DTD/sodipodi-0.dtd"
   xmlns:inkscape="http://www.inkscape.org/namespaces/inkscape"
   inkscape:version="1.0beta1 (32d4812, 2019-09-19)"
   sodipodi:docname="derpnews_sketch2_tagline.svg"
   id="svg32"
   preserveAspectRatio="xMidYMid meet"
   viewBox="0 0 1300 380"
   height="380pt"
   width="1300pt"
   version="1.0">
  <defs
     id="defs36" />
  <sodipodi:namedview
     inkscape:current-layer="svg32"
     inkscape:window-maximized="0"
     inkscape:window-y="68"
     inkscape:window-x="12"
     inkscape:cy="204"
     inkscape:cx="972.95238"
     inkscape:zoom="0.35"
     showgrid="false"
     id="namedview34"
     inkscape:window-height="1209"
     inkscape:window-width="1600"
     inkscape:pageshadow="2"
     inkscape:pageopacity="0"
     guidetolerance="10"
     gridtolerance="10"
     objecttolerance="10"
     borderopacity="1"
     inkscape:document-rotation="0"
     bordercolor="#666666"
     pagecolor="#ffffff" />
  <metadata
     id="metadata10">
Created by potrace 1.16, written by Peter Selinger 2001-2019
<rdf:RDF>
  <cc:Work
     rdf:about="">
    <dc:format>image/svg+xml</dc:format>
    <dc:type
       rdf:resource="http://purl.org/dc/dcmitype/StillImage" />
    <dc:title></dc:title>
  </cc:Work>
</rdf:RDF>
</metadata>
  <g
     id="g30"
     stroke="none"
     fill="#000000"
     transform="matrix(0.1,0,0,-0.1,6.4285714,314.57143)">
    <path
       inkscape:connector-curvature="0"
       id="path12"
       d="m 523,3027 c -41,-21 -96,-65 -163,-131 -83,-82 -107,-112 -140,-180 -23,-48 -44,-108 -50,-146 -30,-194 0,-280 147,-420 54,-52 87,-90 77,-90 -9,0 -54,-18 -101,-40 -47,-22 -97,-40 -110,-40 -16,0 -41,-17 -75,-52 C 63,1882 57,1871 50,1816 33,1697 -1,959 7,903 11,877 19,869 53,856 148,819 277,718 394,590 457,521 504,463 499,462 c -5,-2 -9,-12 -9,-23 0,-43 49,-21 181,84 71,56 158,123 192,149 63,48 211,125 282,148 83,26 95,37 137,126 21,47 40,92 40,102 0,9 -11,73 -25,142 -14,69 -31,169 -36,222 -16,139 -13,471 4,623 8,72 15,133 15,136 0,3 -14,24 -31,45 -17,22 -38,53 -45,70 -9,22 -28,39 -66,56 -59,28 -207,140 -340,255 -97,84 -180,182 -203,237 -15,35 -14,38 22,110 36,74 37,76 18,96 -24,27 -38,25 -112,-13 z m 16,-465 c -97,-91 -168,-152 -179,-152 -4,0 -11,7 -14,16 -10,26 121,162 204,212 29,18 37,20 48,8 12,-12 3,-24 -59,-84 z m 131,13 c 10,-12 6,-22 -24,-56 -37,-44 -112,-112 -182,-167 l -41,-32 -19,21 c -18,20 -18,21 16,47 19,15 78,66 130,114 52,48 98,88 101,88 4,0 12,-7 19,-15 z M 233,2450 c 14,-104 109,-226 228,-293 l 63,-36 -26,-12 c -24,-11 -32,-8 -91,34 -75,53 -146,130 -173,184 -20,41 -33,180 -17,170 6,-4 13,-25 16,-47 z m 587,-16 c 0,-3 -38,-41 -85,-85 -88,-84 -131,-141 -120,-159 4,-6 -17,4 -47,22 -48,30 -51,33 -27,36 31,4 106,65 184,149 48,53 60,61 76,52 10,-5 19,-12 19,-15 z m 80,-59 c 7,-9 11,-17 9,-19 -2,-2 -62,-49 -133,-106 -95,-76 -130,-99 -136,-90 -11,17 202,230 229,230 10,0 24,-7 31,-15 z m 81,-55 c 19,-11 4,-26 -223,-218 -15,-12 -20,-12 -38,1 -23,16 -24,15 190,190 52,42 46,40 71,27 z m 189,-203 c 0,-20 -4,-24 -20,-20 -14,4 -35,-9 -73,-43 -73,-67 -181,-150 -176,-136 2,6 31,34 64,63 113,98 175,158 175,169 0,6 -7,13 -15,16 -16,7 -60,-26 -181,-132 -64,-57 -72,-61 -86,-47 -15,14 -9,20 55,64 40,27 101,73 136,102 l 65,53 28,-32 c 15,-17 28,-43 28,-57 z M 722,1952 c 31,-24 60,-51 64,-60 8,-19 12,-168 17,-564 2,-212 0,-268 -10,-268 -7,0 -14,1 -14,3 -1,1 -5,178 -9,392 -5,265 -11,400 -20,420 -6,17 -35,48 -62,70 -28,22 -58,51 -67,65 l -16,25 30,-19 c 17,-11 56,-39 87,-64 z m -54,-52 c 37,0 51,-137 55,-527 l 2,-303 -55,55 -54,54 2,273 c 1,165 -3,319 -11,390 l -12,117 30,-29 c 17,-17 36,-30 43,-30 z M 95,1410 C 82,1116 75,1032 64,1020 c -13,-13 -14,-6 -9,55 4,67 18,319 30,565 3,63 9,133 13,155 14,88 14,-20 -3,-385 z m 1041,256 c -3,-12 -21,-40 -41,-63 -37,-44 -165,-143 -184,-143 -6,0 -11,13 -11,29 0,22 9,34 38,53 21,14 74,59 117,101 79,74 95,79 81,23 z M 520,1532 c 0,-47 -2,-50 -67,-106 -38,-32 -112,-101 -165,-153 l -98,-96 v 46 c 0,39 3,44 18,40 14,-3 34,15 78,69 54,67 222,248 230,248 2,0 4,-22 4,-48 z m 624,-45 c 4,-52 2,-76 -4,-72 -6,4 -51,-32 -101,-79 -49,-47 -99,-90 -109,-96 -18,-10 -20,-7 -20,23 0,26 6,36 25,45 13,6 58,43 100,83 59,57 75,78 75,100 0,16 -5,29 -12,29 -6,0 -1,11 12,25 13,14 24,24 25,22 1,-1 5,-37 9,-80 z M 515,1305 c -5,-61 -9,-72 -23,-68 -12,3 -54,-34 -131,-112 -63,-63 -116,-114 -118,-112 -9,9 92,130 175,210 51,48 92,92 92,97 0,23 -51,7 -96,-29 -43,-34 -134,-136 -202,-225 l -22,-29 v 48 c 0,27 3,45 7,41 4,-4 50,35 102,87 53,52 123,117 156,146 69,60 71,58 60,-54 z M 170,936 C 237,900 316,835 437,717 L 558,598 546,562 c -7,-20 -17,-37 -22,-38 -5,-2 -31,27 -59,63 -92,119 -215,223 -348,294 l -68,36 27,32 c 23,27 29,30 43,19 9,-7 32,-22 51,-32 z m 1054,12 C 1211,904 1202,898 1117,865 983,815 818,714 675,595 571,508 573,509 605,568 c 35,65 127,175 188,225 77,63 339,176 410,177 25,0 27,-3 21,-22 z" />
    <path
       inkscape:connector-curvature="0"
       id="path14"
       d="m 1979,2302 c -57,-38 -126,-89 -154,-113 -27,-25 -83,-67 -123,-94 -108,-72 -203,-154 -240,-209 l -32,-49 4,-453 4,-454 50,-42 c 28,-24 101,-87 164,-142 62,-54 130,-110 151,-124 25,-17 37,-32 37,-48 0,-21 5,-24 36,-24 28,0 45,8 73,36 50,47 202,156 274,195 69,36 82,60 96,170 8,65 7,76 -9,93 -16,16 -23,17 -51,7 -84,-29 -194,6 -244,78 -36,52 -74,149 -75,187 0,53 55,108 230,234 91,64 186,136 212,159 l 47,42 -26,70 c -20,55 -23,72 -13,84 13,16 6,35 -15,35 -8,0 -19,18 -25,43 -18,77 -40,131 -81,199 -47,80 -144,188 -168,188 -9,0 -64,-31 -122,-68 z m 67,-458 c 13,-22 31,-70 40,-107 l 17,-66 -79,-85 c -43,-47 -79,-84 -79,-83 -1,1 1,106 3,232 l 4,230 35,-40 c 19,-22 46,-58 59,-81 z m -186,-236 c 0,-40 -4,-68 -8,-61 -12,19 -55,-7 -172,-104 -58,-47 -91,-71 -75,-54 17,18 69,65 118,104 81,66 96,85 81,100 -10,10 -74,-28 -149,-88 -58,-46 -71,-53 -74,-38 -2,11 12,32 40,56 45,40 218,157 231,157 5,0 8,-33 8,-72 z m -90,-839 c 35,-28 75,-56 88,-62 24,-11 28,-47 6,-54 -17,-6 -120,76 -245,194 -87,82 -115,115 -117,137 -3,26 5,21 100,-67 57,-53 132,-119 168,-148 z m 491,129 c -6,-40 -9,-43 -91,-90 -47,-27 -120,-76 -163,-108 -43,-33 -80,-60 -83,-60 -17,0 42,61 134,137 92,77 201,163 207,163 1,0 -1,-19 -4,-42 z" />
    <path
       inkscape:connector-curvature="0"
       id="path16"
       d="m 8815,2321 c -44,-27 -111,-76 -149,-108 -38,-32 -109,-85 -157,-118 -167,-114 -248,-198 -270,-277 -7,-28 -7,-133 2,-361 8,-210 9,-356 3,-419 l -10,-97 71,-60 c 38,-33 106,-92 150,-131 44,-40 106,-90 138,-113 41,-29 57,-47 57,-64 0,-20 5,-23 39,-23 30,0 44,6 58,24 33,44 264,206 326,229 27,10 47,69 54,156 5,73 4,80 -15,90 -14,8 -29,8 -47,1 -57,-22 -142,-7 -198,34 -63,46 -139,215 -116,259 28,53 77,101 167,164 127,88 283,205 303,229 16,18 15,24 -11,92 -16,39 -24,72 -19,72 5,0 9,9 9,20 0,11 -7,20 -15,20 -8,0 -19,17 -26,43 -23,88 -50,150 -94,218 -55,85 -132,169 -154,169 -9,0 -53,-22 -96,-49 z m 50,-499 c 15,-30 30,-77 35,-105 l 8,-51 -77,-82 c -42,-45 -76,-81 -77,-81 -1,1 1,105 4,231 l 5,230 38,-45 c 21,-24 50,-68 64,-97 z m -195,-199 c -1,-57 -1,-58 -38,-75 -20,-10 -84,-57 -142,-104 -58,-48 -91,-72 -75,-55 17,18 70,65 118,104 53,43 86,77 84,87 -5,27 -39,11 -139,-66 -81,-61 -98,-71 -98,-54 0,11 15,34 33,50 36,34 235,170 249,170 4,0 8,-26 8,-57 z m -72,-868 c 39,-29 76,-55 82,-57 7,-2 9,-13 5,-30 -7,-27 -8,-27 -33,-11 -38,23 -130,102 -244,208 -79,73 -98,95 -98,118 0,27 7,22 109,-73 60,-56 140,-126 179,-155 z m 468,119 c -4,-16 -27,-34 -74,-59 -57,-30 -102,-60 -245,-165 -19,-14 -19,-13 -9,6 13,24 85,88 229,204 84,67 98,75 101,58 2,-11 1,-31 -2,-44 z" />
    <path
       inkscape:connector-curvature="0"
       id="path18"
       d="m 10540,2356 c -14,-7 -68,-41 -121,-74 -98,-62 -163,-97 -322,-173 -48,-23 -94,-51 -102,-62 -11,-15 -15,-17 -15,-7 0,8 -12,38 -25,65 -14,28 -25,56 -25,63 0,27 -40,89 -65,100 -41,19 -60,15 -110,-24 -26,-20 -108,-71 -183,-115 -75,-44 -160,-98 -190,-120 -47,-36 -53,-44 -48,-68 4,-14 11,-43 15,-64 12,-54 23,-62 59,-43 28,15 32,14 54,-3 23,-19 23,-23 26,-233 2,-158 -1,-235 -12,-298 -8,-47 -16,-129 -17,-182 l -3,-97 54,-48 c 73,-64 118,-113 135,-143 19,-36 132,-142 190,-179 32,-20 61,-31 84,-30 33,0 42,8 111,95 41,52 105,124 142,161 l 67,66 75,-80 c 42,-45 95,-107 119,-139 24,-33 63,-76 86,-97 24,-21 40,-41 37,-44 -11,-11 16,-33 40,-33 35,0 139,55 404,213 225,135 310,199 310,234 0,9 10,37 22,62 20,41 23,67 29,261 4,118 14,268 23,333 24,184 40,477 27,509 -6,17 -24,33 -47,43 -21,8 -60,37 -88,63 -61,57 -119,102 -132,102 -5,0 -52,-36 -103,-80 -52,-44 -135,-102 -185,-130 -50,-27 -105,-58 -122,-70 l -30,-20 -12,73 c -21,133 -34,180 -58,204 -26,26 -57,29 -94,9 z m 64,-211 c 10,-39 26,-259 26,-355 l -1,-85 -37,-17 c -20,-10 -83,-56 -139,-102 -63,-53 -109,-84 -122,-83 -12,1 -21,6 -20,12 0,11 147,137 215,185 79,55 124,142 56,106 -15,-8 -72,-53 -127,-100 -55,-47 -102,-80 -104,-74 -2,6 53,65 123,131 69,65 124,123 120,128 -14,23 -48,1 -159,-102 -92,-85 -121,-107 -124,-93 -2,11 8,26 25,38 34,25 241,212 250,227 3,6 1,16 -4,21 -15,15 -43,-5 -157,-108 -51,-46 -96,-84 -99,-84 -3,0 -6,9 -6,19 0,12 49,63 130,137 72,64 130,123 130,130 0,31 -41,8 -145,-81 -102,-88 -110,-93 -113,-70 -4,26 -8,22 158,163 52,44 100,81 106,81 7,1 15,-10 18,-24 z m 725,-103 -1,-77 -145,-140 c -130,-125 -143,-135 -123,-96 12,25 69,93 126,151 57,59 104,112 104,118 0,48 -118,-45 -206,-161 -24,-33 -44,-55 -44,-50 0,32 195,287 212,277 12,-8 58,35 58,53 0,8 5,11 10,8 6,-3 9,-41 9,-83 z m -378,-305 c -6,-81 -11,-221 -11,-310 0,-124 -4,-177 -17,-218 l -16,-54 -10,34 c -14,45 8,581 29,720 11,75 12,111 5,127 -8,18 -7,23 7,26 15,3 17,-8 20,-87 2,-49 -2,-156 -7,-238 z m -1124,193 c -38,-41 -93,-103 -121,-137 l -51,-62 -8,56 -8,56 63,65 c 35,35 88,84 118,108 l 54,43 12,-27 c 10,-25 7,-31 -59,-102 z m 373,58 30,-53 -5,-410 c -6,-431 -10,-498 -27,-493 -7,3 -10,74 -9,208 2,216 -21,582 -40,652 -6,23 -26,57 -44,75 l -33,33 36,20 c 20,10 43,19 49,20 7,0 26,-24 43,-52 z m 687,18 c 9,-8 9,-24 -2,-70 -17,-72 -32,-262 -41,-498 l -6,-178 -43,43 c -84,84 -80,64 -80,403 v 302 l 60,9 c 64,11 93,8 112,-11 z m -782,-182 c 21,-125 37,-383 33,-572 l -3,-172 -32,22 c -41,29 -76,93 -102,186 -19,68 -19,92 -14,393 l 6,321 49,-49 c 46,-46 50,-54 63,-129 z m -583,86 c 30,-37 38,-116 38,-383 0,-193 -4,-286 -16,-351 -8,-49 -12,-101 -9,-115 8,-31 177,-205 259,-267 41,-31 60,-52 61,-69 l 1,-23 -41,28 c -22,15 -56,47 -74,71 -71,90 -151,175 -191,204 l -41,30 5,110 c 3,61 12,166 21,235 16,133 13,374 -7,438 -14,48 -45,72 -90,72 -43,0 -48,12 -15,35 28,20 76,13 99,-15 z m 388,-118 c 0,-30 -51,-101 -156,-216 l -99,-109 -3,44 c -3,45 -3,45 119,172 67,70 125,127 130,127 5,0 9,-8 9,-18 z m 1364,-289 c -6,-43 -16,-58 -88,-133 -45,-47 -103,-110 -130,-140 l -48,-54 7,39 c 4,22 23,64 43,93 32,48 207,242 219,242 2,0 1,-21 -3,-47 z m -1382,-6 c -3,-25 -27,-59 -103,-143 -55,-60 -111,-126 -125,-146 -24,-34 -25,-58 -4,-58 5,0 57,54 117,121 105,117 108,120 114,93 5,-26 -6,-41 -106,-144 -62,-63 -118,-126 -125,-139 -11,-22 -14,-23 -25,-8 -12,17 -2,147 15,191 8,23 228,266 240,266 3,0 4,-15 2,-33 z m 109,-464 c -9,-6 -45,-45 -80,-87 -60,-72 -80,-85 -88,-59 -2,5 28,43 67,83 66,67 82,100 48,100 -7,0 -46,-34 -86,-76 -40,-42 -76,-73 -79,-70 -9,8 18,44 96,126 39,41 71,79 71,84 0,4 15,-14 34,-40 30,-44 31,-50 17,-61 z m 101,-46 27,-22 -50,-55 c -28,-30 -43,-42 -33,-27 13,22 14,31 5,40 -10,9 -24,-1 -64,-46 -39,-44 -56,-57 -69,-52 -23,9 -22,11 3,51 23,37 127,134 143,134 6,-1 23,-11 38,-23 z m 1158,15 c 0,-35 -315,-234 -586,-370 l -62,-31 11,34 c 9,29 15,35 39,35 29,0 109,44 248,136 78,52 332,202 343,203 4,1 7,-3 7,-7 z" />
    <path
       inkscape:connector-curvature="0"
       id="path20"
       d="m 4850,2316 c -52,-24 -148,-68 -213,-99 l -117,-57 -72,60 c -77,65 -176,120 -216,120 -18,0 -65,-41 -186,-162 -204,-206 -229,-250 -158,-283 19,-9 22,-18 22,-75 0,-88 4,-93 65,-75 82,25 79,33 83,-311 l 3,-295 -81,-76 C 3860,950 3816,861 3853,805 c 7,-11 19,-39 26,-62 13,-47 26,-52 62,-24 34,26 89,53 125,61 l 31,7 6,-181 c 3,-102 1,-185 -4,-190 -12,-13 -12,-46 0,-46 5,0 9,-24 10,-52 0,-112 18,-206 49,-260 16,-29 37,-55 47,-56 11,-3 69,46 169,145 88,86 178,164 214,185 44,27 63,45 68,65 10,39 -10,142 -40,209 l -26,56 28,-17 c 15,-10 46,-33 69,-51 23,-19 46,-34 51,-34 6,0 70,60 144,133 73,73 177,175 231,227 l 98,94 -6,56 c -19,165 -10,328 41,758 29,247 37,213 -82,343 -44,47 -98,109 -122,138 -54,64 -66,64 -192,7 z m 243,-232 68,-72 -8,-48 c -7,-40 -13,-50 -30,-52 -13,-2 -32,-20 -47,-45 -13,-23 -74,-91 -135,-152 -100,-99 -111,-107 -111,-83 0,15 10,38 23,51 12,12 71,78 130,145 60,67 113,122 118,122 12,0 11,37 -1,45 -16,10 -94,-59 -184,-162 -75,-87 -81,-92 -84,-67 -3,22 8,37 65,87 112,100 193,183 193,198 0,8 -4,20 -9,28 -13,20 -58,0 -63,-28 -2,-10 -43,-55 -93,-99 l -90,-80 -7,49 -8,49 98,95 c 53,52 99,93 102,92 3,-1 36,-34 73,-73 z m -388,-119 c 18,-35 20,-60 20,-205 0,-91 -2,-208 -5,-260 -3,-52 -1,-160 4,-239 6,-105 6,-142 -2,-137 -28,17 -35,98 -36,426 -1,309 -2,338 -20,364 -10,16 -27,31 -37,33 -24,7 -25,39 -1,52 31,19 56,8 77,-34 z m -605,-93 c 15,-58 28,-268 21,-337 -6,-52 -7,-44 -13,71 -3,79 -11,143 -19,160 -13,26 -19,29 -72,32 l -57,3 v 54 55 h 65 64 z m 537,-310 c 1,-174 4,-336 8,-359 7,-46 3,-49 -41,-33 -21,8 -24,14 -16,22 9,9 12,101 12,329 0,327 4,389 24,369 7,-7 12,-111 13,-328 z m 499,231 c -12,-125 -16,-143 -35,-143 -10,0 -33,-23 -53,-50 -19,-28 -77,-98 -129,-156 l -94,-104 -3,33 c -4,40 10,57 177,229 105,108 124,138 85,138 -19,0 -140,-109 -211,-191 -53,-60 -53,-60 -53,-30 0,20 5,31 14,31 18,0 258,236 282,278 10,17 20,32 22,32 3,0 1,-30 -2,-67 z m -638,-208 c -5,-61 -8,-67 -59,-122 -145,-156 -223,-232 -232,-226 -5,3 13,27 41,52 65,59 232,251 232,267 0,42 -32,19 -147,-101 -119,-125 -123,-128 -123,-97 0,19 5,32 13,32 7,0 71,59 142,130 71,72 132,130 134,130 2,0 1,-29 -1,-65 z m -8,-264 v -119 l -47,6 c -27,2 -50,7 -53,9 -2,2 17,22 43,44 45,39 59,70 37,84 -6,4 -36,-15 -68,-42 -31,-27 -73,-60 -92,-73 l -35,-24 39,44 c 85,96 171,190 173,190 2,0 3,-53 3,-119 z m 457,-493 -212,-208 -25,20 c -14,11 -53,39 -87,61 -35,22 -63,42 -63,44 0,1 39,-9 86,-22 l 86,-25 206,204 206,203 7,-35 8,-35 z M 4600,432 c 0,-23 -9,-35 -47,-59 C 4526,356 4440,281 4360,207 4241,96 4213,74 4202,84 c -11,11 -9,20 12,51 14,21 26,42 26,47 0,39 184,206 275,249 75,36 85,36 85,1 z" />
    <path
       inkscape:connector-curvature="0"
       id="path22"
       d="m 12215,2239 c -87,-44 -195,-104 -240,-133 -44,-29 -99,-63 -121,-74 -23,-12 -53,-35 -67,-52 -14,-16 -30,-30 -35,-30 -15,0 -50,-44 -68,-85 -26,-60 -23,-198 6,-305 28,-102 68,-149 153,-176 69,-22 270,-30 360,-14 45,8 72,9 79,2 5,-5 12,-59 15,-120 l 6,-110 -99,24 c -174,42 -330,29 -440,-37 -96,-58 -188,-200 -204,-317 -6,-49 -4,-65 16,-109 30,-69 72,-123 94,-123 56,0 66,40 24,95 -33,43 -28,67 16,82 61,21 111,15 185,-20 74,-36 121,-80 155,-147 11,-22 24,-40 29,-40 4,0 32,17 62,38 30,20 92,55 139,76 47,21 201,95 343,164 l 257,125 -4,301 -5,300 -63,32 c -50,25 -63,36 -63,55 0,25 -20,30 -57,14 -14,-5 -18,-2 -18,14 0,15 -6,21 -24,21 -13,0 -26,7 -30,15 -9,24 -27,18 -160,-51 -95,-49 -133,-64 -151,-60 -29,7 -63,58 -93,138 l -22,58 41,-29 c 162,-118 439,-17 519,189 12,30 35,85 52,122 l 30,67 -23,31 c -55,72 -67,81 -107,78 -32,-3 -37,-7 -40,-30 -2,-19 3,-31 17,-40 47,-29 10,-78 -60,-78 -26,0 -57,8 -76,20 -41,24 -93,96 -93,126 0,46 -18,74 -47,74 -16,0 -100,-37 -188,-81 z m 466,-327 c -19,-35 -94,-94 -158,-124 -58,-27 -72,-30 -137,-26 -91,6 -150,36 -176,91 -27,56 -16,74 24,40 55,-46 104,-63 191,-63 85,0 140,18 222,74 45,31 47,31 34,8 z m 108,-635 c 1,-16 -3,-26 -7,-23 -4,2 -27,-4 -51,-15 -24,-10 -51,-19 -62,-19 -10,0 -21,-4 -24,-10 -3,-5 -38,-31 -78,-56 -40,-26 -82,-53 -94,-62 -22,-14 -23,-13 -23,17 0,30 5,33 90,73 68,31 90,46 90,60 0,15 -5,18 -22,14 -20,-5 -20,-5 2,6 14,7 57,27 95,44 77,36 83,33 84,-29 z m -506,-224 c 8,-7 -33,-38 -191,-144 -72,-49 -107,-67 -117,-61 -12,6 -1,20 50,62 139,116 234,168 258,143 z m 556,-67 c -14,-8 -387,-185 -489,-231 -69,-31 -144,-68 -168,-82 -24,-13 -47,-22 -50,-18 -4,4 -1,10 7,13 7,2 42,24 77,48 35,24 101,64 147,89 168,91 468,213 476,193 1,-5 1,-10 0,-12 z" />
    <path
       inkscape:connector-curvature="0"
       id="path24"
       d="m 2915,2207 c -84,-48 -292,-191 -328,-226 -46,-43 -77,-99 -77,-139 0,-24 6,-31 39,-44 l 39,-16 6,-113 c 12,-240 26,-628 26,-725 0,-93 2,-103 29,-145 39,-61 77,-93 136,-114 28,-9 74,-30 104,-46 30,-16 64,-29 75,-28 31,1 300,334 292,362 -3,11 2,34 11,50 l 15,30 -55,52 c -38,36 -56,62 -60,86 -15,78 -27,225 -32,389 -5,138 -4,171 6,155 43,-73 139,-125 229,-125 65,0 142,24 187,60 15,12 47,50 71,83 147,210 168,276 118,384 -27,56 -52,76 -94,71 -36,-4 -41,-41 -11,-81 21,-29 21,-31 4,-43 -23,-17 -97,-28 -125,-19 -11,4 -50,34 -85,67 -53,49 -69,59 -89,54 -27,-7 -128,-80 -166,-120 l -24,-27 -91,96 c -51,52 -96,95 -101,95 -5,0 -27,-11 -49,-23 z m 124,-176 c 23,-27 41,-54 41,-59 0,-28 -25,-62 -45,-62 -13,0 -73,-40 -143,-95 -66,-52 -123,-95 -126,-95 -3,0 -6,11 -6,24 0,17 19,38 77,82 147,112 193,153 187,169 -4,8 -11,15 -16,15 -6,0 -64,-41 -130,-91 -66,-50 -121,-89 -124,-86 -4,3 129,110 242,194 25,18 27,22 11,28 -27,11 -73,-13 -174,-92 -94,-73 -117,-86 -111,-58 3,12 251,174 270,175 3,0 25,-22 47,-49 z m 10,-478 c 1,-101 -1,-111 -16,-107 -12,3 -57,-32 -138,-107 -92,-86 -121,-108 -123,-94 -3,12 40,62 133,155 100,100 136,143 132,154 -10,26 -38,6 -158,-111 -58,-56 -109,-100 -112,-96 -15,15 -7,81 12,94 50,37 236,204 239,215 11,45 -51,10 -186,-104 -35,-30 -67,-51 -70,-47 -7,7 21,35 171,164 57,50 97,92 97,103 0,32 -27,20 -102,-45 -40,-34 -94,-80 -120,-101 l -48,-38 v 30 c 0,28 15,43 138,141 l 137,110 6,-102 c 4,-56 7,-152 8,-214 z m -396,288 c 12,-12 37,-805 29,-903 -4,-52 -3,-55 43,-106 26,-29 79,-71 117,-93 38,-22 68,-42 66,-44 -5,-6 -84,23 -126,45 -45,24 -61,37 -89,72 -23,31 -19,-23 -44,658 -5,157 -15,300 -20,318 -6,19 -25,42 -43,54 l -31,20 44,-5 c 24,-3 48,-10 54,-16 z m 603,-101 c 44,-28 174,-39 239,-21 21,6 41,9 43,7 9,-10 -77,-57 -125,-67 -42,-10 -62,-9 -95,1 -58,17 -117,65 -139,114 -28,61 -23,74 10,29 16,-22 46,-51 67,-63 z m -197,-396 c 1,-43 26,-200 37,-228 4,-11 2,-15 -8,-11 -8,3 -65,-41 -145,-114 -72,-66 -134,-117 -138,-113 -4,4 55,66 131,138 104,99 136,135 131,148 -9,24 -22,15 -167,-118 -69,-63 -126,-111 -128,-106 -2,5 56,66 127,136 72,70 131,133 131,140 0,31 -38,9 -142,-86 -61,-55 -114,-98 -117,-95 -3,3 54,65 127,138 123,123 154,167 117,167 -8,0 -65,-52 -127,-116 -95,-98 -114,-113 -116,-94 -3,16 28,52 135,155 148,143 151,144 152,59 z m 48,-334 c -18,-13 -72,-64 -122,-111 -82,-79 -92,-86 -113,-76 -23,10 -19,16 105,136 l 128,126 17,-25 c 16,-24 15,-26 -15,-50 z" />
    <path
       inkscape:connector-curvature="0"
       id="path26"
       d="m 7505,2200 c -3,-5 -65,-38 -138,-73 -73,-35 -158,-80 -190,-100 l -58,-37 -62,52 c -34,29 -80,72 -102,96 -46,47 -65,51 -103,21 -15,-11 -76,-52 -135,-90 -140,-91 -199,-147 -196,-186 1,-15 -6,-45 -15,-65 -9,-21 -16,-42 -16,-49 0,-6 24,-34 54,-62 79,-75 86,-108 86,-372 0,-234 -9,-303 -44,-349 -58,-77 -89,-173 -63,-194 8,-7 19,-12 23,-11 11,2 235,-217 258,-254 22,-32 55,-35 81,-7 29,32 190,139 249,165 29,13 69,26 87,30 31,6 34,10 37,43 2,35 -9,88 -29,140 -5,14 -16,22 -26,20 -31,-5 -43,123 -50,513 -5,326 -4,356 11,362 19,8 21,4 35,-73 24,-126 41,-287 41,-383 0,-199 49,-397 129,-519 26,-40 92,-122 145,-181 106,-117 128,-128 153,-74 7,15 19,39 26,54 15,33 136,128 197,155 25,10 89,40 143,66 97,45 99,46 93,75 -3,17 -9,67 -12,113 -8,94 -15,102 -71,79 -45,-19 -67,-19 -103,0 -20,10 -32,27 -39,53 -21,78 -33,246 -37,500 l -3,263 -122,129 c -67,71 -132,136 -145,145 -26,17 -80,20 -89,5 z m -495,-235 c 39,-29 39,-28 46,-210 l 6,-140 -129,-126 c -70,-69 -138,-131 -150,-138 -21,-11 -23,-10 -22,16 0,24 22,45 135,136 126,102 148,128 113,135 -12,2 -105,-64 -216,-154 -29,-24 -33,-24 -32,-8 0,12 51,56 142,124 99,73 143,112 145,128 2,14 -2,22 -11,22 -8,0 -71,-43 -142,-96 -97,-74 -129,-93 -136,-83 -19,30 -6,47 69,96 132,86 216,173 168,173 -8,0 -27,-11 -43,-24 -54,-45 -194,-136 -203,-131 -4,2 -10,18 -12,35 -4,28 0,33 66,71 109,64 196,128 196,145 0,27 -29,26 -67,-3 -78,-61 -207,-133 -217,-123 -8,8 -8,13 0,18 5,4 32,23 59,42 57,39 187,119 196,120 3,0 20,-11 39,-25 z m 754,-133 c -4,-35 -11,-52 -21,-52 -7,0 -41,-22 -76,-48 -61,-48 -174,-125 -249,-171 l -38,-23 v 45 c 0,39 3,46 25,51 51,13 315,203 315,227 0,28 -36,18 -90,-26 -66,-51 -228,-155 -242,-155 -5,0 -8,19 -6,42 2,35 8,46 33,61 148,91 265,171 265,180 0,7 21,-9 46,-34 45,-45 45,-46 38,-97 z m -484,28 c 0,-5 -7,-10 -15,-10 -9,0 -15,-9 -15,-25 0,-18 5,-25 20,-25 19,0 20,-7 20,-153 0,-163 21,-425 46,-571 8,-48 13,-90 11,-93 -3,-2 -15,33 -27,78 -24,91 -39,221 -40,347 0,106 -27,322 -49,387 -15,46 -18,50 -48,50 -40,0 -44,12 -5,18 54,8 102,7 102,-3 z m 503,-435 7,-140 -58,-37 c -31,-20 -108,-82 -170,-138 -63,-55 -115,-100 -118,-100 -2,0 -4,13 -4,29 0,25 14,41 93,104 50,42 119,90 151,109 63,35 78,54 52,64 -26,10 -75,-16 -186,-99 l -105,-79 55,57 c 30,31 87,75 125,97 82,48 105,66 105,85 0,43 -152,-38 -247,-132 l -71,-71 -6,29 c -12,57 -6,71 37,101 23,16 84,59 136,94 67,47 95,61 101,52 4,-6 16,-10 26,-8 26,5 33,65 8,75 -24,9 -110,-38 -226,-124 -54,-40 -98,-70 -97,-65 0,4 74,63 165,132 91,68 174,135 186,147 19,21 20,23 4,29 -25,9 -48,-5 -211,-133 -80,-62 -148,-113 -150,-113 -3,0 -5,22 -5,49 v 48 l 114,68 c 63,37 149,95 192,129 l 79,62 6,-90 c 3,-50 9,-154 12,-231 z m -829,-333 c -66,-62 -146,-134 -179,-160 l -60,-47 45,55 c 90,109 181,206 243,258 58,50 62,52 66,30 3,-18 -20,-45 -115,-136 z m 846,115 c 0,-31 -11,-42 -150,-153 -156,-123 -185,-142 -198,-130 -10,11 318,315 341,316 4,0 7,-15 7,-33 z m 27,-118 22,-22 -87,-69 c -48,-37 -117,-89 -154,-115 -66,-45 -68,-46 -88,-28 -19,17 -16,20 128,136 81,65 149,118 151,119 3,0 15,-10 28,-21 z m -747,-73 c 0,-28 -7,-38 -38,-58 -20,-14 -75,-57 -121,-96 -67,-56 -87,-69 -98,-60 -11,9 -8,17 19,46 52,55 219,202 229,202 5,0 9,-15 9,-34 z m 837,0 c 21,-7 17,-13 -49,-81 -63,-67 -72,-73 -83,-58 -11,15 -20,11 -81,-44 -62,-56 -70,-60 -96,-51 -15,6 -28,13 -28,18 0,4 31,28 69,53 95,63 211,164 211,184 0,15 2,15 18,1 9,-9 27,-19 39,-22 z M 6722,763 c 107,-82 129,-115 102,-150 -13,-17 -22,-9 -119,91 -96,101 -121,136 -95,136 5,0 56,-35 112,-77 z" />
    <path
       inkscape:connector-curvature="0"
       id="path28"
       d="m 5781,1364 c -68,-80 -74,-85 -103,-79 -87,19 -217,-76 -283,-207 -50,-101 -48,-113 30,-171 80,-60 169,-161 252,-289 35,-54 69,-98 75,-98 6,0 33,22 60,50 35,36 56,50 76,50 37,0 46,8 69,61 26,59 68,105 173,193 128,106 170,153 170,186 0,32 -31,60 -65,60 -12,0 -51,31 -98,78 -42,42 -77,80 -77,82 0,3 -35,42 -78,88 -102,108 -106,108 -201,-4 z m -181,-235 c -33,-49 -62,-105 -66,-124 -6,-34 9,-75 27,-75 21,0 81,-55 164,-150 47,-54 85,-101 85,-106 0,-10 -41,-54 -50,-54 -4,0 -28,31 -53,69 -63,95 -157,202 -222,253 -29,24 -54,50 -54,59 -1,17 84,143 115,171 26,23 76,48 96,48 14,0 4,-21 -42,-91 z" />
  </g>
  <text
     id="text40"
     y="353.57138"
     x="15.000002"
     style="font-style:normal;font-weight:normal;font-size:60px;line-height:1.45;font-family:sans-serif;fill:#000000;fill-opacity:1;stroke:none;stroke-width:0.75"
     xml:space="preserve"><tspan
       style="font-style:normal;font-variant:normal;font-weight:bold;font-stretch:normal;font-family:'Comic Sans MS';-inkscape-font-specification:'Comic Sans MS';stroke-width:0.75"
       y="353.57138"
       x="15.000002"
       id="tspan38"
       sodipodi:role="line">Don't take any of this seriously. Seriously.</tspan></text>
</svg>
